# xmcd
#
# Track frame offsets:
#	150
#	19327
#	35412
#	58555
#	76090
#	89035
#	106465
#	128475
#	150542
#	176717
#	205780
#	230052
#	245207
#	272305
#	287262
#
# Disc length: 4141 seconds
#
# Revision: 0
# Processed by: cddbd v1.4PL0 Copyright (c) Steve Scherf et al.
# Submitted via: EasyCDDAExtractor 4.6.9.1
#
DISCID=c5102b0f
DTITLE=Peabo Bryson - Anthology [CD1]
DYEAR=2001
DGENRE=R&B
TTITLE0=Underground Music
TTITLE1=Just Another Day
TTITLE2=I Can Make It Better
TTITLE3=Love Is Like Money
TTITLE4=Piece Of My Heart
TTITLE5=Turn The Hands Of Time
TTITLE6=Reaching For The Sky
TTITLE7=Feel The Fire
TTITLE8=I'm So Into You
TTITLE9=Crosswinds
TTITLE10=She's A Woman
TTITLE11=Gimme Some Time
TTITLE12=What You Won't Do For Love
TTITLE13=Minute By Minute
TTITLE14=I Love The Way You Love
EXTD=
EXTT0=
EXTT1=
EXTT2=
EXTT3=
EXTT4=
EXTT5=
EXTT6=
EXTT7=
EXTT8=
EXTT9=
EXTT10=
EXTT11=Natalie Cole and Peabo Bryson
EXTT12=Peabo Bryson and Natalie Cole
EXTT13=
EXTT14=
PLAYORDER=
